<svg 
 xmlns="http://www.w3.org/2000/svg"
 xmlns:xlink="http://www.w3.org/1999/xlink"
 width="19px" height="20px">
<path fill-rule="evenodd"  fill="rgb(255, 255, 255)"
 d="M5.415,13.168 L16.681,13.168 C17.958,13.168 19.000,12.149 19.000,10.899 L19.000,6.263 C19.000,6.259 19.000,6.250 19.000,6.246 C19.000,6.234 19.000,6.226 19.000,6.213 C19.000,6.205 19.000,6.197 18.996,6.189 C18.996,6.180 18.992,6.168 18.992,6.160 C18.992,6.152 18.987,6.143 18.987,6.135 C18.983,6.127 18.983,6.119 18.979,6.106 C18.975,6.098 18.975,6.090 18.971,6.082 C18.966,6.074 18.966,6.065 18.962,6.057 C18.958,6.049 18.954,6.041 18.950,6.028 C18.945,6.020 18.941,6.012 18.937,6.008 C18.933,6.000 18.929,5.991 18.924,5.983 C18.920,5.975 18.916,5.971 18.912,5.963 C18.908,5.954 18.899,5.946 18.895,5.938 C18.891,5.930 18.887,5.926 18.878,5.917 C18.874,5.909 18.866,5.905 18.861,5.897 C18.857,5.889 18.849,5.884 18.845,5.876 C18.840,5.868 18.832,5.864 18.828,5.860 C18.819,5.852 18.815,5.847 18.807,5.839 C18.798,5.835 18.794,5.827 18.786,5.823 C18.777,5.819 18.769,5.810 18.760,5.806 C18.752,5.802 18.748,5.798 18.739,5.794 C18.731,5.790 18.723,5.786 18.714,5.778 C18.706,5.773 18.697,5.769 18.689,5.765 C18.681,5.761 18.672,5.757 18.664,5.753 C18.655,5.749 18.647,5.745 18.639,5.741 C18.630,5.736 18.622,5.736 18.613,5.732 C18.605,5.728 18.592,5.724 18.584,5.724 C18.576,5.724 18.567,5.720 18.563,5.720 C18.550,5.716 18.542,5.716 18.529,5.716 C18.525,5.716 18.521,5.712 18.513,5.712 L4.234,3.784 L4.234,1.836 C4.234,1.815 4.234,1.795 4.230,1.778 C4.230,1.774 4.230,1.770 4.226,1.762 C4.226,1.749 4.222,1.737 4.222,1.725 C4.218,1.712 4.218,1.704 4.213,1.692 C4.213,1.684 4.209,1.679 4.209,1.671 C4.205,1.659 4.201,1.647 4.197,1.634 C4.197,1.630 4.192,1.622 4.192,1.618 C4.188,1.605 4.184,1.597 4.176,1.585 C4.171,1.581 4.171,1.573 4.167,1.568 C4.163,1.560 4.159,1.552 4.150,1.544 C4.146,1.536 4.142,1.531 4.138,1.523 C4.134,1.515 4.129,1.511 4.125,1.503 C4.121,1.494 4.113,1.486 4.108,1.478 C4.104,1.474 4.100,1.470 4.096,1.466 C4.087,1.457 4.079,1.449 4.071,1.441 C4.066,1.437 4.062,1.433 4.058,1.429 C4.050,1.420 4.041,1.412 4.029,1.404 C4.024,1.400 4.016,1.396 4.012,1.392 C4.003,1.383 3.995,1.379 3.987,1.371 C3.974,1.363 3.961,1.355 3.953,1.351 C3.949,1.346 3.944,1.346 3.940,1.342 C3.923,1.334 3.902,1.326 3.886,1.318 L0.789,0.043 C0.499,-0.076 0.167,0.056 0.045,0.339 C-0.077,0.623 0.058,0.948 0.348,1.067 L3.096,2.201 L3.096,4.717 L3.096,5.116 L3.096,8.174 L3.096,10.908 L3.096,14.360 C3.096,15.511 3.978,16.465 5.117,16.609 C4.911,16.946 4.789,17.340 4.789,17.760 C4.789,18.997 5.819,20.000 7.079,20.000 C8.340,20.000 9.369,18.993 9.369,17.760 C9.369,17.349 9.256,16.958 9.054,16.629 L14.155,16.629 C13.953,16.962 13.840,17.349 13.840,17.760 C13.840,18.997 14.869,20.000 16.130,20.000 C17.391,20.000 18.420,18.993 18.420,17.760 C18.420,16.527 17.391,15.520 16.130,15.520 L5.415,15.520 C4.760,15.520 4.230,14.998 4.230,14.360 L4.230,12.856 C4.575,13.053 4.982,13.168 5.415,13.168 ZM8.239,17.756 C8.239,18.380 7.718,18.886 7.083,18.886 C6.449,18.886 5.928,18.376 5.928,17.756 C5.928,17.135 6.449,16.625 7.083,16.625 C7.718,16.625 8.239,17.131 8.239,17.756 ZM17.290,17.756 C17.290,18.380 16.769,18.886 16.134,18.886 C15.500,18.886 14.979,18.376 14.979,17.756 C14.979,17.135 15.500,16.625 16.134,16.625 C16.769,16.625 17.290,17.131 17.290,17.756 ZM16.681,12.058 L5.415,12.058 C4.760,12.058 4.230,11.536 4.230,10.899 L4.230,8.166 L4.230,5.108 L4.230,4.902 L17.865,6.739 L17.865,10.895 C17.865,11.541 17.332,12.058 16.681,12.058 Z"/>
</svg>